#!OML:ASF I:\Actors\actors\Patient Classification 2\Patient 1\Session 1\actor1.ASF
:FULLY-SPECIFIED
:DEGREES
369
root -0.631731 18.9165 5.65774 14.9323 0.00986689 0.573382
lowerback 23.6027 0.563918 1.39522
upperback 0.564893 1.36462 1.89003
thorax -12.6587 0.612996 0.871977
lowerneck -9.81608 -2.67513 -1.86793
upperneck 9.16414 -3.43925 1.06231
head 4.39879 -1.69257 0.401218
rclavicle -1.98785e-015 -1.03368e-014
rhumerus -86.3075 44.2415 -52.2282
rradius 69.5367
rwrist 7.13551
rhand 25.1782 -19.556
rfingers 7.12502
rthumb 49.3247 -41.1262
lclavicle -1.98785e-015 -1.03368e-014
lhumerus -100.851 -49.6946 79.9778
lradius 81.6897
lwrist 4.59392
lhand 38.0936 -17.4674
lfingers 7.12502
lthumb 60.7969 -4.55189
rfemur -8.34873 0.74668 12.2662
rtibia 1.66979e-014
rfoot -15.3718 -12.5282
rtoes -2.36722
lfemur -19.123 -3.7701 -13.2885
ltibia 20.1207
lfoot -17.8046 11.8488
ltoes -55.7669
370
root -0.62553 18.9144 5.64231 14.8957 0.149952 0.588178
lowerback 23.8024 0.517999 1.49075
upperback 0.561293 1.33149 1.85603
thorax -12.7708 0.589844 0.788997
lowerneck -9.7388 -2.72479 -1.92661
upperneck 9.13858 -3.51632 1.22206
head 4.38325 -1.72342 0.455742
rclavicle -5.1684e-015 -1.66979e-014
rhumerus -90.2752 42.9588 -56.9625
rradius 72.8422
rwrist 4.19253
rhand 23.4042 -16.8939
rfingers 7.12502
rthumb 47.6921 -39.2491
lclavicle -5.1684e-015 -1.66979e-014
lhumerus -103.958 -48.5933 83.9609
lradius 86.6022
lwrist 9.78245
lhand 38.1699 -18.0303
lfingers 7.12502
lthumb 60.8615 -5.18739
rfemur -8.35092 0.608311 12.2621
rtibia 1.43125e-014
rfoot -15.2944 -12.589
rtoes -2.65115
lfemur -19.2608 -3.93152 -13.2864
ltibia 20.2854
lfoot -17.8415 11.8428
ltoes -55.7876
371
root -0.609565 18.9118 5.61468 14.9534 0.214374 0.589744
lowerback 24.051 0.476935 1.75576
upperback 0.545585 1.34199 1.73754
thorax -12.9183 0.571913 0.49779
lowerneck -9.91473 -2.76738 -1.85379
upperneck 9.1628 -3.59091 1.31106
head 4.42128 -1.75139 0.463658
rclavicle 1.55052e-014 1.59028e-014
rhumerus -93.8434 41.4208 -61.8591
rradius 76.2347
rwrist 1.0849
rhand 20.1748 -14.6893
rfingers 7.12502
rthumb 44.6979 -38.3069
lclavicle 1.55052e-014 1.59028e-014
lhumerus -105.802 -47.4838 87.0181
lradius 91.3401
lwrist 14.9713
lhand 37.0913 -19.3103
lfingers 7.12502
lthumb 59.9434 -5.47069
rfemur -8.5609 0.52549 12.2135
rtibia 1.51076e-014
rfoot -15.0941 -12.7657
rtoes -3.19226
lfemur -19.5538 -4.08534 -13.3021
ltibia 20.4674
lfoot -17.8617 11.9106
ltoes -55.7442
372
root -0.602203 18.9108 5.58535 15.0538 0.299901 0.562104
lowerback 24.2183 0.445552 1.96684
upperback 0.566644 1.35064 1.64096
thorax -12.9793 0.557828 0.262924
lowerneck -10.1258 -2.81898 -1.7449
upperneck 9.08927 -3.66889 1.28512
head 4.43224 -1.78663 0.430394
rclavicle 7.55382e-015 1.35174e-014
rhumerus -96.8132 39.6128 -66.7778
rradius 79.5895
rwrist -2.40799
rhand 14.8022 -12.7575
rfingers 7.12502
rthumb 39.6654 -38.0836
lclavicle 7.55382e-015 1.35174e-014
lhumerus -106.309 -46.2947 89.1921
lradius 95.7413
lwrist 19.6358
lhand 34.3859 -20.9788
lfingers 7.12502
lthumb 57.601 -4.9047
rfemur -8.80797 0.432382 12.2385
rtibia 3.57812e-014
rfoot -14.8349 -12.9986
rtoes -4.2351
lfemur -19.9217 -3.95051 -13.2901
ltibia 20.6817
lfoot -17.7252 11.7485
ltoes -55.7895
373
root -0.611626 18.9112 5.56192 15.1258 0.421114 0.517088
lowerback 24.3315 0.44445 2.01155
upperback 0.627303 1.35974 1.61437
thorax -12.9698 0.558156 0.202929
lowerneck -10.3429 -2.9294 -1.72797
upperneck 8.9819 -3.81242 1.2617
head 4.4364 -1.85725 0.40822
rclavicle 8.74653e-015 -3.18055e-015
rhumerus -98.5233 37.4289 -70.8099
rradius 83.0169
rwrist -3.83308
rhand 11.2359 -11.2318
rfingers 7.12502
rthumb 36.2976 -37.4746
lclavicle 8.74653e-015 -3.18055e-015
lhumerus -105.654 -45.0092 90.7684
lradius 99.7197
lwrist 23.6311
lhand 29.7592 -23.4773
lfingers 7.12502
lthumb 53.4903 -4.30037
rfemur -8.94142 0.328457 12.3605
rtibia 5.56597e-015
rfoot -14.6913 -13.1478
rtoes -4.94164
lfemur -20.2565 -3.53262 -13.2449
ltibia 20.942
lfoot -17.4942 11.3174
ltoes -55.8664
